<svg id="visual" viewBox="0 0 960 540" width="960" height="540" xmlns="http://www.w3.org/2000/svg" xmlns:xlink="http://www.w3.org/1999/xlink" version="1.1"><rect x="0" y="0" width="960" height="540" fill="#001220"></rect><defs><linearGradient id="grad1_0" x1="43.8%" y1="0%" x2="100%" y2="100%"><stop offset="14.444444444444446%" stop-color="#ffffff" stop-opacity="1"></stop><stop offset="85.55555555555554%" stop-color="#ffffff" stop-opacity="1"></stop></linearGradient></defs><defs><linearGradient id="grad1_1" x1="43.8%" y1="0%" x2="100%" y2="100%"><stop offset="14.444444444444446%" stop-color="#ffffff" stop-opacity="1"></stop><stop offset="85.55555555555554%" stop-color="#a2a7ad" stop-opacity="1"></stop></linearGradient></defs><defs><linearGradient id="grad1_2" x1="43.8%" y1="0%" x2="100%" y2="100%"><stop offset="14.444444444444446%" stop-color="#4e5762" stop-opacity="1"></stop><stop offset="85.55555555555554%" stop-color="#a2a7ad" stop-opacity="1"></stop></linearGradient></defs><defs><linearGradient id="grad1_3" x1="43.8%" y1="0%" x2="100%" y2="100%"><stop offset="14.444444444444446%" stop-color="#4e5762" stop-opacity="1"></stop><stop offset="85.55555555555554%" stop-color="#001220" stop-opacity="1"></stop></linearGradient></defs><defs><linearGradient id="grad2_0" x1="0%" y1="0%" x2="56.3%" y2="100%"><stop offset="14.444444444444446%" stop-color="#ffffff" stop-opacity="1"></stop><stop offset="85.55555555555554%" stop-color="#ffffff" stop-opacity="1"></stop></linearGradient></defs><defs><linearGradient id="grad2_1" x1="0%" y1="0%" x2="56.3%" y2="100%"><stop offset="14.444444444444446%" stop-color="#a2a7ad" stop-opacity="1"></stop><stop offset="85.55555555555554%" stop-color="#ffffff" stop-opacity="1"></stop></linearGradient></defs><defs><linearGradient id="grad2_2" x1="0%" y1="0%" x2="56.3%" y2="100%"><stop offset="14.444444444444446%" stop-color="#a2a7ad" stop-opacity="1"></stop><stop offset="85.55555555555554%" stop-color="#4e5762" stop-opacity="1"></stop></linearGradient></defs><defs><linearGradient id="grad2_3" x1="0%" y1="0%" x2="56.3%" y2="100%"><stop offset="14.444444444444446%" stop-color="#001220" stop-opacity="1"></stop><stop offset="85.55555555555554%" stop-color="#4e5762" stop-opacity="1"></stop></linearGradient></defs><g transform="translate(960, 0)"><path d="M0 486C-49.6 440 -99.2 393.9 -153.5 370.5C-207.7 347 -266.7 346.2 -320.3 320.3C-374 294.4 -422.3 243.5 -449 186C-475.7 128.4 -480.9 64.2 -486 0L0 0Z" fill="#273340"></path><path d="M0 364.5C-37.2 330 -74.4 295.4 -115.1 277.9C-155.8 260.3 -200 259.6 -240.2 240.2C-280.5 220.8 -316.7 182.7 -336.8 139.5C-356.8 96.3 -360.6 48.2 -364.5 0L0 0Z" fill="#777e87"></path><path d="M0 243C-24.8 220 -49.6 197 -76.7 185.2C-103.9 173.5 -133.3 173.1 -160.2 160.2C-187 147.2 -211.1 121.8 -224.5 93C-237.9 64.2 -240.4 32.1 -243 0L0 0Z" fill="#d0d2d5"></path><path d="M0 121.5C-12.4 110 -24.8 98.5 -38.4 92.6C-51.9 86.8 -66.7 86.5 -80.1 80.1C-93.5 73.6 -105.6 60.9 -112.3 46.5C-118.9 32.1 -120.2 16.1 -121.5 0L0 0Z" fill="#ffffff"></path></g><g transform="translate(0, 540)"><path d="M0 -486C63.1 -463.6 126.3 -441.3 166.8 -402.8C207.4 -364.3 225.5 -309.7 275.8 -275.8C326.1 -241.8 408.6 -228.5 449 -186C489.4 -143.5 487.7 -71.7 486 0L0 0Z" fill="#273340"></path><path d="M0 -364.5C47.3 -347.7 94.7 -331 125.1 -302.1C155.6 -273.2 169.1 -232.3 206.8 -206.8C244.5 -181.4 306.4 -171.4 336.8 -139.5C367.1 -107.6 365.8 -53.8 364.5 0L0 0Z" fill="#777e87"></path><path d="M0 -243C31.6 -231.8 63.1 -220.6 83.4 -201.4C103.7 -182.2 112.7 -154.9 137.9 -137.9C163 -120.9 204.3 -114.3 224.5 -93C244.7 -71.7 243.9 -35.9 243 0L0 0Z" fill="#d0d2d5"></path><path d="M0 -121.5C15.8 -115.9 31.6 -110.3 41.7 -100.7C51.9 -91.1 56.4 -77.4 68.9 -68.9C81.5 -60.5 102.1 -57.1 112.3 -46.5C122.4 -35.9 121.9 -17.9 121.5 0L0 0Z" fill="#ffffff"></path></g></svg>